<?xml version="1.0" standalone="no"?>
<!DOCTYPE svg PUBLIC "-//W3C//DTD SVG 1.1//EN" "http://www.w3.org/Graphics/SVG/1.1/DTD/svg11.dtd">
<svg xmlns="http://www.w3.org/2000/svg" width="1414" height="1414" viewBox="0 0 1414 1414" role="img" aria-label="Venus">
  <defs>
    <linearGradient id="venus-bg" x1="0%" y1="0%" x2="100%" y2="100%">
      <stop offset="0%" stop-color="#059669"/>
      <stop offset="100%" stop-color="#089c9c"/>
    </linearGradient>
  </defs>
  <rect width="1414" height="1414" fill="url(#venus-bg)"/>
  <style>
    #svg-layer-0 { display: none; }
    #svg-layer-1, #svg-layer-2 { fill: #ffffff; }
  </style><path fill="none" d="M0 0h1414v1414H0zm695.602 258.884c-3.162 4.46-6.123 9.04-9.044 13.66a590 590 0 0 1-4.613 7.128C660.937 312.186 645.237 348.014 634 385l-1.01 3.262C624.879 414.75 619.877 442.348 618 470l-.167 2.298a312 312 0 0 0 .355 48.89l.196 2.344c2.39 27.935 7.685 55.365 16.616 81.968l.933 2.841c2.591 7.4 5.958 14.122 12.942 18.159 4.723 2.015 9.091 2.655 14.043.77 5.83-3.046 9.007-7.152 11.082-13.27.988-8.66-.322-17.406-1.375-26-10.76-87.99 5.384-170.787 44.625-249.937l1.663-3.359 1.54-3.044 1.349-2.668C723 327 723 327 725 326l.719 1.969c1.683 3.983 3.734 7.725 5.781 11.531 25.023 47.233 40.936 98.108 45.5 151.5l.336 3.555c6.037 75.875-13.013 154.69-51.973 219.96C724 717 724 717 724 719c-2.804-.342-3.865-.857-5.832-2.941l-1.98-2.621c-11.161-14.135-24.147-27.796-37.88-39.473a420 420 0 0 1-5.71-4.961C664.979 662.298 657.25 655.924 649 650l-1.865-1.354c-64.587-46.828-140.077-76.488-219.76-82.958l-3.523-.306c-10.512-.76-20.458-.38-28.852 6.618-5.524 5.376-8.272 10.202-8.437 18.063.254 12.52 6.307 20.914 14.437 29.937l2.195 2.488a509 509 0 0 0 4.453 4.938 439 439 0 0 1 4.766 5.304c10.401 11.643 21.766 22.497 33.996 32.207 2.832 2.255 5.582 4.594 8.34 6.938 35.214 29.33 77.208 52.98 120.5 67.875l2.071.728c5.393 1.751 10.537 2.395 16.07.858 5.615-2.902 8.566-6.206 10.609-12.336.368-5.616.239-9.194-3-14-5.59-5.582-12.034-8.751-19.092-12.12-26.297-12.586-50.792-27.664-73.154-46.418a326 326 0 0 0-4.945-4.032c-4.629-3.715-9.012-7.476-13.13-11.75-2.396-2.397-4.981-4.55-7.59-6.711-2.947-2.777-5.498-5.861-8.089-8.969 25.31 3.52 50.167 9.732 74 19l2.768 1.068c34.085 13.303 66.185 31.643 94.648 54.652a800 800 0 0 0 4.479 3.585c7.969 6.407 15.73 13.157 22.832 20.523C676 726 676 726 678 726v2l2.438 2.438C683 733 683 733 684 736l-2.402.227C660.164 738.642 639.89 744.817 620 753l-2.503 1.024c-26.85 11.113-52.626 26.927-73.985 46.675a281 281 0 0 1-6.278 5.555C526.25 815.844 515.782 826.345 507 838l-1.238 1.612C469.567 886.847 469.567 886.847 472 908c1.269 6.45 3.84 11.806 9 16 10.68 6.234 20.931 4.277 32.34 1.313C546.047 916.335 577.373 900.99 606 883l2.342-1.47c19.062-12.034 36.75-25.64 53.658-40.53l1.813-1.585a627 627 0 0 0 5.312-4.727l1.614-1.416c4.294-3.916 7.602-8.061 8.792-13.862-.078-5.881-.843-10.675-4.531-15.41-3.324-3.049-6.85-4.262-11.312-4.625-7.848.412-13.742 5.758-19.5 10.625-22.168 18.55-48.704 32.001-74.875 43.938l-2.577 1.182c-3.884 1.746-7.47 3.333-11.736 3.88 1.074-8.98 10.15-16.26 16.063-22.75l1.423-1.57C602.766 801.966 648.66 780.643 692 773l2.518-.444c9.936-1.718 9.936-1.718 14.6-2.311 1.533-.2 3.056-.475 4.573-.772 4.03.92 5.692 4.438 7.934 7.715a1204 1204 0 0 0 3.176 4.417l1.612 2.244c2.335 3.165 4.838 6.168 7.4 9.151l1.388 1.62q1.894 2.194 3.799 4.38l1.926 2.23A749 749 0 0 0 746 807l1.863 2.145c4.879 5.54 9.99 10.814 15.2 16.043l2.001 2.015c4.482 4.468 9.134 8.676 13.936 12.797l2.922 2.563C804.426 861.958 829.184 878.373 855 893l2.331 1.326c73.547 41.408 73.547 41.408 101.606 33.611 6.83-2.224 11.924-6.444 15.5-12.687 3.575-8.35 3.036-16.22.106-24.68-20.138-46.597-63.888-85.807-105.86-112.498a352 352 0 0 1-4.644-3.025c-6.608-4.052-12.32-5.358-20.039-4.047-4.885 2.268-7.732 5.115-10 10-.883 6.48-.79 11.641 2.738 17.342 2.105 2.766 4.776 4.72 7.574 6.72 8.11 6.088 15.402 12.9 22.688 19.938l1.583 1.517c6.688 6.425 12.712 13.175 18.417 20.483l1.89 2.363C893 854.615 893 854.615 893 858c-3.52-.593-6.454-1.516-9.676-3.047l-2.722-1.291-2.914-1.412-3.053-1.472C847.073 837.343 820.354 822.018 797 802l-1.79-1.52c-6.748-5.738-13.416-11.473-19.577-17.847-1.539-1.539-3.122-2.901-4.82-4.258-3.871-3.269-7.18-6.476-8.813-11.375l1.866-.104C810.265 764.142 855.922 751.56 898 732l3.39-1.562c23.614-10.94 46.527-23.08 67.61-38.438l2.299-1.652c9.64-6.929 18.997-14.035 27.934-21.853 1.347-1.14 2.72-2.249 4.104-3.344 7.375-5.858 14.026-12.237 20.644-18.926 1.775-1.794 3.559-3.58 5.343-5.364 5.767-5.784 11.416-11.605 16.676-17.861l2.441-2.8c8.71-10.315 14.048-19.181 13.895-32.805-.609-6.15-2.826-10.96-7.274-15.274-12.726-10.003-28.585-7.123-43.664-5.406C966.03 572.334 922.466 584.725 881 604l-2.667 1.237c-10.17 4.774-19.906 10.14-29.52 15.95l-2.862 1.728c-18.404 11.337-18.404 11.337-20.826 20.335-.2 6.001 1.525 10.703 4.813 15.688 3.421 3.421 6.337 4.378 11.144 4.492 6.422-.13 11.017-2.329 16.606-5.305a1468 1468 0 0 1 6.082-3.043l3.123-1.564C900.474 637.11 936.141 628.89 973 624c-1.088 3.263-1.75 3.878-4.312 6-3.483 2.94-6.813 5.995-10.125 9.125-6.769 6.287-14.081 11.813-21.487 17.321a396 396 0 0 0-5.619 4.296c-44.714 34.328-101.066 56.51-156.02 67.32l-3.316.656-3.062.567-2.678.496c-2.417.222-4.087-.039-6.381-.781 2.229-4.737 4.688-9.146 7.5-13.562 30.257-48.782 47.836-105.924 54.75-162.625l.252-2.067c1.913-15.885 2.707-31.637 2.686-47.621l-.002-2.59c-.147-76.654-22.516-153.732-61.374-219.723l-1.98-3.366c-4.25-7.105-8.847-13.837-13.832-20.446l-1.75-2.348c-5.063-6.628-12.089-10.804-20.34-12.16-13.606-.525-22.42 5.761-30.308 16.392M148 798c2.016 6.72 4.1 13.33 6.45 19.93l.997 2.82q1.618 4.564 3.24 9.125l2.294 6.464a5196 5196 0 0 0 15.942 44.17c5.77 15.794 11.38 31.641 16.952 47.506 5.943 16.915 12.031 33.772 18.188 50.61a3370 3370 0 0 1 20.763 58.52 4589 4589 0 0 0 14.799 42.23l.983 2.768q3.176 8.936 6.392 17.857l.966 2.686q1.429 3.96 2.87 7.916l.875 2.43.822 2.244.714 1.967C262 1119 262 1119 264 1122c2.073.37 2.073.37 4.682.36l2.992.013 3.293-.032h3.46c3.787-.001 7.574-.025 11.362-.048q3.93-.009 7.861-.013c6.201-.01 12.403-.034 18.604-.064 7.059-.033 14.118-.05 21.177-.065 14.523-.031 29.046-.084 43.569-.151 2.237-4.923 4.395-9.817 6.144-14.939l1.128-3.283 1.185-3.489 1.93-5.628q1.017-2.973 2.03-5.948c2.128-6.239 4.268-12.474 6.406-18.709l2.148-6.27a4544 4544 0 0 1 10.836-31.223c5.857-16.698 11.582-33.438 17.255-50.198 5.781-17.076 11.629-34.124 17.61-51.13 4.822-13.712 9.58-27.445 14.328-41.183a12039 12039 0 0 1 18.344-52.723 6836 6836 0 0 1 7.297-20.746l1.165-3.31q1.026-2.91 2.064-5.82l.872-2.483.746-2.1C493 801 493 801 493 798H391c-8.042 25.274-8.042 25.274-10.727 34.414l-.938 3.174q-1.482 5.018-2.96 10.037l-2.11 7.143q-4.45 15.06-8.883 30.126-2.002 6.804-4.007 13.606l-.79 2.68c-4.4 14.92-8.913 29.804-13.459 44.68a5208 5208 0 0 0-13.376 44.515l-.845 2.85q-1.181 3.993-2.358 7.986l-.696 2.348A320 320 0 0 0 326 1016h-2l-.618-2.66c-2.754-11.453-6.154-22.663-9.662-33.904-1.802-5.78-3.589-11.563-5.376-17.346l-1.11-3.587c-3.579-11.586-7.074-23.197-10.546-34.816l-3.692-12.343-.953-3.187c-2.594-8.67-5.205-17.336-7.82-26l-.624-2.066q-2.752-9.12-5.508-18.237C271.664 840.588 265.331 819.296 259 798zm933.27 164.438c-3.467 3.914-6.054 7.831-8.27 12.562l-1.246 2.594c-4.89 12.045-4.526 27.458-.07 39.582 7.478 16.044 20.911 23.092 36.921 28.969 11.188 3.924 22.778 6.41 34.34 8.964 18.953 4.232 18.953 4.232 24.68 9.141 1.854 3.707 2.306 6.69 1.375 10.75-3.321 4.67-7.612 6.494-13 8-2.952.415-5.834.477-8.812.438l-2.378-.02c-7.822-.208-13.931-2.272-20.747-6.043-3.8-4.375-5.254-9.949-7.063-15.375h-52c1.175 14.095 1.175 14.095 3.188 20.188l.67 2.062c4.443 12.986 13.838 22.676 25.806 29.188 27.262 12.768 64.477 13.538 93.024 4.812 14.641-5.698 27.4-13.712 34.312-28.25 6.584-15.73 6.948-31.585 1.04-47.605-5.39-12.327-15.662-19.536-27.716-24.513-13.799-5.236-28.527-7.922-42.987-10.615-20.147-3.901-20.147-3.901-25.681-9.74-2.056-3.138-2.127-4.838-1.656-8.527 1.302-3.411 2.58-4.664 5.875-6.187l2.055-.981c7.383-2.967 17.04-3.227 24.57-.644 8.672 4.49 9.577 7.004 13.5 16.812h51c-1.142-14.845-3.522-27.385-14.184-38.219-31.625-27.004-96.465-26.93-126.546 2.657M471 945a155 155 0 0 0-.12 6.764l-.003 2.168c-.002 2.415.004 4.83.01 7.246l-.001 5.173q.001 7.044.013 14.088c.006 4.902.006 9.804.008 14.706q.005 13.935.021 27.869.018 18.822.024 37.645c.01 19.78.03 39.56.048 59.341h150v-41h-96v-29h80c5.814-11.628.351-26.005 0-39h-80c0-24 0-24 1-25 2.89-.125 5.759-.186 8.65-.205l2.75-.03q4.521-.047 9.041-.081l6.251-.063q8.244-.082 16.488-.153 9.882-.091 19.764-.19c10.018-.099 20.037-.187 30.056-.278v-41q-28.724-.035-57.447-.052-13.337-.007-26.672-.023-11.62-.015-23.24-.02a8507 8507 0 0 1-12.311-.01 5402 5402 0 0 0-11.576-.008q-2.13 0-4.26-.006-2.896-.006-5.793-.001l-3.282-.003C472 944 472 944 471 945m182 0a59 59 0 0 0-.121 4.156l-.005 2.724.01 3.019v3.169q.006 5.265.022 10.53l.011 7.443c.052 27.788.293 55.576.547 83.363q.092 10.313.18 20.625.175 19.986.356 39.971h51v-84h2a136 136 0 0 1 5.063 6.313q1.502 1.947 3.007 3.894l1.51 1.96c5.746 7.415 11.85 14.535 17.976 21.637 3.064 3.56 6.06 7.163 9.006 10.821 3.617 4.46 7.441 8.691 11.35 12.893a195 195 0 0 1 8.65 10.044c4.611 5.65 9.532 11.042 14.438 16.438h47V944h-51v84c-3.848-1.283-5.204-3.601-7.5-6.75-3.52-4.7-7.124-9.285-10.937-13.75l-1.385-1.622q-1.392-1.628-2.787-3.253c-2.31-2.698-4.6-5.412-6.891-8.125l-2.754-3.254a7754 7754 0 0 1-5.46-6.46l-2.723-3.223-1.363-1.613a1641 1641 0 0 0-8.786-10.286c-4.87-5.661-9.675-11.363-14.379-17.164L707 950l-1.943-3.117c-1.742-2.07-2.691-2.798-5.352-3.416-2.904-.179-5.75-.167-8.658-.088l-3.2.018c-3.367.027-6.731.097-10.097.165q-3.421.032-6.844.057c-4.155.042-8.31.087-12.466.172l-2.531.048C654 944 654 944 653 945m213-1q-.142 22.664-.207 45.327a5792 5792 0 0 1-.095 21.05c-.044 6.783-.067 13.565-.078 20.347q-.01 3.865-.043 7.731c-.185 22.838 1.34 44.098 18.196 61.377L886 1102l1.79 1.887c15.78 15.467 40.96 19.028 62.085 19.363 23.201-.364 48.78-4.392 66.125-21.25 20.051-21.316 19.325-49.35 19.23-76.79v-6.973q-.003-7.237-.024-14.476c-.017-6.198-.021-12.395-.02-18.592q-.001-7.168-.013-14.335l-.006-6.863q-.004-4.76-.022-9.52l.002-2.874c-.033-6.463-.033-6.463-1.147-7.577a88 88 0 0 0-5.07-.114h-3.276l-3.564.016-3.628.005c-3.841.005-7.683.018-11.524.03q-3.897.008-7.792.014-9.573.017-19.146.049l-.01 1.724q-.122 20.81-.278 41.619-.076 10.063-.134 20.126-.056 9.716-.136 19.433-.028 3.702-.045 7.404c-.017 3.464-.046 6.927-.078 10.391l-.007 3.076c-.111 9.547-1.312 17.575-7.312 25.227-6.124 5.963-12.623 7.545-20.875 7.438l-2.407-.02c-8.521-.226-14.372-2.693-20.718-8.418-1.766-2.84-1.766-2.84-3.25-5.937l-1.516-3.09c-1.766-4.255-2.356-8.156-2.385-12.744l-.026-2.82-.012-3.058-.026-3.249q-.026-3.486-.045-6.972a5337 5337 0 0 0-.077-11.016c-.07-9.115-.13-18.23-.19-27.345q-.075-11.565-.165-23.129c-.027-3.628-.047-7.256-.068-10.884l-.05-6.624-.013-3.082-.026-2.787-.015-2.436C920 945 920 945 919 944a85 85 0 0 0-4.979-.114h-3.215l-3.497.016-3.56.005c-3.771.005-7.541.018-11.312.03q-3.822.008-7.646.014-9.395.017-18.791.049" id="svg-layer-0"/><path d="M738.2 247.074c10.844 7.457 17.177 19.86 23.8 30.926l1.497 2.482C794.527 332.229 813.737 390.389 822 450l.382 2.738c2.227 16.36 2.83 32.712 2.806 49.2l-.003 2.59c-.034 14.241-.476 28.32-2.185 42.472l-.236 1.953c-7.398 60.69-25.712 122.919-59.856 174.253-1.025 1.563-1.975 3.174-2.908 4.794l1 2c52.502-5.025 106.83-27.48 151-56l1.936-1.222c19.517-12.316 38.485-26.767 54.57-43.358C970 628 970 628 972 627l1-3c-39.199 5.612-76.542 14.514-112.055 32.563-16.898 8.5-16.898 8.5-24.945 6.437-5.228-2.377-7.885-5.794-10-11-1.32-5.281-1.022-8.945 1-14 3.805-5.318 8.139-8.377 13.688-11.75l2.554-1.576C866.61 610.373 891.123 598.063 917 589l3.042-1.092c92.482-33.083 92.482-33.083 126.958-20.908 6.604 3.275 10.822 7.345 14 14 2.259 6.776 2.066 15.436-.91 21.992-4.79 8.825-10.557 16.048-17.47 23.276-1.978 2.115-3.898 4.28-5.823 6.443-4.894 5.452-9.995 10.67-15.172 15.851l-2.633 2.67a198 198 0 0 1-16.54 14.805 171 171 0 0 0-5.737 4.791C987.91 678.505 978.576 685.32 969 692l-2.143 1.503C906.92 735.31 835.05 762.453 762 767c4.1 7.118 9.405 12.675 15.645 17.96 2.384 2.065 4.69 4.196 6.993 6.35C807.615 812.783 860.097 858 893 858c-.984-5.39-4.601-8.868-8-13l-2.348-2.914c-11.354-13.905-24.116-26.377-38.441-37.191-8.836-6.786-8.836-6.786-10.211-11.895-.597-5.615-.78-10.32 1.625-15.5 4.428-4.66 7.577-6.756 14.063-7.125 7.05.302 11.524 2.764 17.312 6.625l2.124 1.399C884.589 788.622 899.109 799.727 913 812l1.64 1.444C937.392 833.602 972.988 868.277 977 900c.245 8.1-1.323 14.78-6.691 20.941-5.6 5.419-11.263 7.692-18.993 8.254C916.11 928.354 875.491 905.612 846 888l-2.517-1.499c-23.841-14.291-46.486-30.524-67.042-49.278a341 341 0 0 0-4.726-4.227c-5.492-4.832-10.722-9.898-15.903-15.058l-2.016-2.003c-4.468-4.482-8.678-9.131-12.796-13.935l-2.668-3.062C730.404 789.694 722.76 780.14 716 770c-18.746.791-37.204 5.287-55 11l-2.065.662c-28.499 9.389-55.79 24.855-77.767 45.322-2.07 1.925-4.198 3.753-6.356 5.578-4.008 3.504-7.405 7.358-10.812 11.438l-2.473 2.813L559 849.75l-2.375 2.734C555 855 555 855 555.25 857.328L556 859c32.295-11.359 62.405-28.679 89.254-49.871C658.426 798.917 658.426 798.917 668 800c4.42 1.35 7.13 3.639 9.438 7.625 2.325 5.473 2.9 10.896.738 16.52-7.005 11.91-20.5 21.447-31.176 29.855l-3.437 2.746-3.625 2.879-1.641 1.307C602.94 888.762 538.333 932.872 491 928c-6.173-1.507-10.96-3.89-14.816-9.023-4.747-7.927-5.447-16.572-3.309-25.477 12.23-36.074 44.784-72.715 74.125-96.5l3.063-2.504C587.238 764.48 635.853 739.837 684 736c-1.183-2.548-2.105-4.105-4.125-6.125L678 728v-2l-1.684-.684c-3-1.705-4.995-3.883-7.379-6.379-5.31-5.442-10.978-10.21-16.937-14.937a938 938 0 0 1-3.184-2.664C600.7 661.266 537.484 632.144 475 625c8.599 10.773 19.346 20.13 30.105 28.684a260 260 0 0 1 6.32 5.226c19.22 16.256 41.233 29.701 63.868 40.664l1.902.927a554 554 0 0 0 9.302 4.429c6.886 3.306 12.287 6.55 16.503 13.07 1.8 5.397 1.695 10.1-.625 15.25-2.628 4.76-6.263 7.046-11.375 8.75-5.92.339-10.5-.413-16.062-2.375l-2.324-.8c-10.445-3.7-20.53-8.25-30.614-12.825l-2.816-1.253c-50.911-22.717-125.63-69.226-150.371-121.81-2.733-7.47-3.523-15.855-.313-23.312 3.678-6.126 9.412-11.013 16.29-13.073 9.111-2.274 18.34-1.389 27.585-.552l2.212.195c17.729 1.602 35.047 4.977 52.413 8.805l3.428.746c82.222 18.226 171.483 67.147 223.63 134.93l2.13 2.761 1.917 2.56c2.008 2.123 3.04 2.655 5.895 3.003l.723-2.504c1.502-4.11 3.525-7.659 5.715-11.433 48.138-85.197 60.014-188.116 34.655-282.436-7.829-27.679-18.703-53.901-31.468-79.627l-1.552-3.133-1.471-2.93-1.303-2.597C728 332 728 332 726.337 329.816 725 328 725 328 725 326c-4.525 4.012-6.669 9.794-9.312 15.125l-.924 1.856c-38.792 78.276-52.993 163.083-41.181 253.468 1.977 16.832 1.977 16.832-2.306 23.934-2.848 3.605-5.859 6.144-10.277 7.617-6.397.542-10.712-.285-16-4-6.081-6.055-8.454-13.82-11-21.812l-.647-1.989c-29.596-91.21-16.518-190.265 31.08-290.142 6.014-11.727 12.633-22.923 19.692-34.057l1.992-3.15c12.08-18.786 27.71-39.527 52.082-25.776" id="svg-layer-1"/><path d="M148 798h111c14 47 14 47 19.875 66.813 3.259 10.964 6.553 21.914 9.938 32.84 3.46 11.185 6.828 22.397 10.206 33.607a4002 4002 0 0 0 10.37 33.92 6968 6968 0 0 0 4.121 13.224 1221 1221 0 0 1 7.869 26.198l.796 2.754.726 2.545.644 2.256C324 1014 324 1014 324 1016h2l.465-1.754c2.504-9.315 5.238-18.56 7.973-27.808l.826-2.8c5.674-19.21 11.5-38.371 17.326-57.535 6.27-20.626 12.434-41.279 18.436-61.985l1.634-5.638.81-2.793a5062 5062 0 0 1 9.394-31.873l1.88-6.33q1.292-4.348 2.588-8.695l.777-2.622c1.776-5.937 1.776-5.937 2.891-8.167h102c-2.25 10.125-2.25 10.125-3.55 13.837l-.886 2.556-.95 2.693-1.011 2.9q-1.64 4.697-3.29 9.389-1.158 3.311-2.313 6.623-2.36 6.76-4.728 13.517-3.074 8.775-6.135 17.555l-.919 2.635-1.814 5.203-2.737 7.842a20141 20141 0 0 0-15.251 43.878c-3.718 10.728-7.44 21.454-11.193 32.169A5949 5949 0 0 0 418 1017.5a5979 5979 0 0 1-22.254 64.528q-2.22 6.32-4.43 12.644-1.694 4.84-3.393 9.678l-1.58 4.51q-1.07 3.06-2.148 6.117l-1.218 3.47C382 1121 382 1121 381 1122a71 71 0 0 1-4.562.12l-2.987.004-3.305-.01h-3.458c-3.793 0-7.586-.009-11.38-.016l-7.865-.005q-9.312-.005-18.625-.021-10.6-.015-21.199-.022-21.81-.016-43.619-.05-.96-1.888-1.914-3.779l-1.076-2.125c-1.455-3.019-2.553-6.118-3.647-9.284l-.715-2.053q-.77-2.21-1.53-4.422c-1.127-3.272-2.267-6.538-3.405-9.805q-.923-2.648-1.843-5.295c-3.582-10.302-7.225-20.582-10.87-30.862l-2.142-6.044c-12.865-36.295-25.777-72.572-38.791-108.813a9455 9455 0 0 1-16.755-47.08 4975 4975 0 0 0-16.812-46.875l-1.014-2.782q-2.38-6.531-4.763-13.06a9376 9376 0 0 1-7.223-19.846l-1.115-3.052-.979-2.706-.834-2.293C148 800 148 800 148 798M673.87 943.1q3.35-.099 6.696-.287c19.523-1.076 19.523-1.076 25.723 4.404 2.885 3.077 5.28 6.387 7.528 9.95 1.689 2.617 3.672 4.958 5.683 7.333l2.125 2.625c2.9 3.51 5.883 6.943 8.875 10.375a558 558 0 0 1 13.2 15.703c2.672 3.25 5.42 6.428 8.175 9.61 6.561 7.594 13.04 15.366 18.809 23.585L772 1028h2v-84h51v176h-47c-12.75-13.813-12.75-13.813-18.723-21.254-2.495-3.01-5.115-5.885-7.777-8.746-4.214-4.533-8.183-9.21-12.062-14.031-2.867-3.492-5.836-6.884-8.813-10.282a381 381 0 0 1-21.187-26.562c-.805-1.031-1.61-2.062-2.438-3.125h-2v84h-51q-.19-20.988-.373-41.977-.097-11.303-.2-22.604c-.252-27.712-.477-55.423-.515-83.136q-.007-3.666-.016-7.334-.012-5.025-.011-10.05l-.011-3.02.005-2.723-.003-2.375c.39-5.602 16.645-3.578 20.993-3.68M474.419 943.877l3.282.003 3.752-.004 4.155.01h4.345q5.916.001 11.832.013c4.117.006 8.235.006 12.352.008q11.703.005 23.406.021 13.32.016 26.64.022 27.41.016 54.817.05v41l-93 1c-2.023 8.091-1 16.66-1 25h80l1 38c-1.72 1.72-3.909 1.12-6.201 1.124l-2.256-.01h-2.365c-2.592 0-5.184-.009-7.776-.016l-5.376-.005a9280 9280 0 0 1-14.18-.024q-7.229-.014-14.457-.02c-9.463-.01-18.926-.029-28.389-.049v29h96v41H471c-.04-43.845-.04-43.845-.049-62.158q-.008-18.999-.026-37.998-.015-13.834-.02-27.67 0-7.329-.01-14.659-.01-6.891-.008-13.782 0-2.536-.006-5.073a2064 2064 0 0 1-.001-6.896l-.003-3.908c.164-3.807.164-3.807 3.542-3.979M1205 958l2.55 1.898c11.241 9.645 13.379 24.174 14.45 38.102h-51l-4-10c-5.275-5.574-9.456-7.699-17.238-8.215-8.177-.22-15.739-.104-22.262 5.278-2.636 3.404-2.921 5.64-2.5 9.937 5.907 8.987 18.19 10.469 28.098 12.553q3.575.733 7.152 1.447c9.398 1.898 18.737 3.856 27.953 6.516l2.047.58c12.957 3.87 25.07 11.632 31.625 23.716 6.38 14.395 7.696 31.283 2.125 46.188-6.754 15.422-17.962 24.398-33.215 30.941-27.873 10.594-65.289 9.045-92.785-1.941-13.55-6.192-23.62-16.045-29-30-2.741-7.714-3.307-14.683-4-23h52l4 11c3.26 5.674 8.785 7.807 14.89 9.535 8.973 1.978 19.884 1.454 28.262-2.27 2.22-1.52 3.457-2.964 4.848-5.265.49-4.406.6-6.801-1.375-10.75-8.61-7.38-22.242-8.701-33.008-11.172-8.906-2.054-17.683-4.278-26.363-7.156l-2.2-.727c-12.473-4.26-25.373-10.983-31.992-22.91-5.99-12.884-7.659-28.162-3.437-41.91 6.328-15.743 16.322-24.623 31.543-31.887 30.806-12.743 76.051-11.815 102.832 9.512M866 944q11.295-.037 22.59-.055 3.845-.008 7.69-.02a5303 5303 0 0 1 11.029-.023l3.497-.015h3.215l2.847-.007C919 944 919 944 920 945c.101 1.407.134 2.819.138 4.229.005.912.01 1.825.017 2.765l.003 3.058.015 3.203q.016 3.459.026 6.917.019 5.48.053 10.96c.062 10.39.116 20.78.15 31.171.02 6.35.056 12.698.1 19.047q.021 3.626.026 7.252c.005 3.394.028 6.787.055 10.181l-.009 3.003c.123 10.352 2.7 19.212 9.426 27.214 8.334 6.772 17.632 6.844 27.878 6.243 6.095-.697 10.962-3.66 15.06-8.118 5.784-8.764 6.21-16.931 6.267-27.087l.03-3.313q.047-5.406.081-10.81l.063-7.508q.074-8.862.138-17.722.084-11.083.176-22.165.162-19.76.307-39.52 11.508-.037 23.016-.055 3.92-.008 7.837-.02c3.746-.013 7.491-.018 11.237-.023l3.564-.015h3.275l2.9-.007C1034 944 1034 944 1035 945c.106 3.157.147 6.293.145 9.45l.01 3.012q.013 4.968.013 9.936l.01 6.922q.009 7.286.007 14.573c0 6.176.014 12.351.031 18.527q.015 7.17.013 14.337 0 3.41.013 6.82c.084 27.03-.088 53.328-19.797 74.173-18.507 17.03-45.31 20.82-69.515 20.438-26-1.241-48.151-7.925-66.047-27.504-14.676-17.605-14.456-39.396-14.274-61.059q.012-3.934.018-7.868c.012-6.155.045-12.31.085-18.464.045-7.019.067-14.037.087-21.056.041-14.412.111-28.825.201-43.237" id="svg-layer-2"/></svg>