<?xml version="1.0" encoding="UTF-8"?>
<svg xmlns="http://www.w3.org/2000/svg" viewBox="0 0 1095 1095" width="1095" height="1095">
<path d="M527.02 0.17C540.67 0.17 554.33 0.17 567.99 0.17C574.69 2.1 583.4 1.37 590.5 1.82C603.81 2.64 617.29 4.02 630.45 6.21C672.58 13.23 713.62 24.38 753.32 40.2C899.9 98.62 1012.5 220.56 1064.93 368.54C1076.57 401.38 1085.06 436.12 1089.62 470.66C1091.26 483.07 1092.48 495.47 1093.51 507.94C1093.98 513.75 1093.26 520.5 1094.83 526C1094.83 540.33 1094.83 554.65 1094.83 568.98C1093.32 574.28 1094.01 580.77 1093.57 586.36C1092.57 599.07 1091.28 611.7 1089.61 624.33C1085.05 658.84 1076.66 693.67 1064.95 726.47C1011.54 876.08 901.04 994.83 753.34 1054.81C713.7 1070.9 672.52 1081.5 630.45 1088.78C615.9 1091.3 601.01 1092.44 586.3 1093.56C580.48 1093.99 573.63 1093.24 568.1 1094.83C554.36 1094.83 540.62 1094.83 526.89 1094.83C520.97 1093.12 513.56 1093.92 507.33 1093.44C493.36 1092.36 479.35 1091.1 465.5 1088.92C423.19 1082.27 381.36 1071.02 341.67 1054.8C232.81 1010.33 137.48 930.48 77.73 828.74C57.04 793.52 40.87 756.74 27.27 718.27C16.87 688.84 9.11 654.41 5.3 623.46C3.74 610.79 2.43 598.19 1.4 585.46C0.96 580.13 1.62 573.97 0.17 568.94C0.17 554.65 0.17 540.36 0.17 526.07C1.62 521.04 0.98 514.88 1.4 509.55C2.41 496.82 3.73 484.21 5.3 471.54C9.22 440.12 16.77 406.65 27.29 376.75C40.81 338.26 57.03 301.46 77.73 266.26C137.33 164.94 232.8 83.99 341.69 40.21C381.31 24.27 422.47 13.25 464.55 6.22C477.71 4.02 491.19 2.65 504.5 1.81C511.61 1.37 520.31 2.09 527.02 0.17ZM588.95 564.5C590.01 560.25 593.11 556.67 595.42 552.91C598.74 547.49 601.81 541.89 604.8 536.29C611.88 523 617.15 508.7 622.09 494.52C625.94 483.44 628.47 471.93 631.11 460.53C645.66 397.86 639.96 331.36 617.16 271.36C609.45 251.09 599.84 232.22 589.01 213.47C583.47 203.86 577.5 192.98 566.46 189.07C557.17 185.77 548.75 190.28 542.33 196.85C530.85 208.61 519.47 229.23 512.73 244.25C486.84 301.95 471.33 364.25 481.65 427.68C483.92 441.65 487.32 455.2 491.81 468.63C493.92 474.94 496.39 482.69 503.24 485.31C511.61 488.51 521.17 483.34 522.6 474.25C523.35 469.53 521.87 464.14 521.24 459.46C520.42 453.51 520.15 447.51 519.66 441.53C515.66 392.84 522.28 342.95 539.82 297.34C544.87 284.19 551.97 264.35 560.5 253.4C566.15 257.99 569.31 267.68 572.25 274.27C578.55 288.38 584.8 302.41 589.38 317.2C607.24 374.87 607.38 438.96 587.75 496.29C583.79 507.85 579.38 519.44 573.88 530.36C569.45 539.14 564.11 547.63 560.5 556.76C554.34 555.03 550.39 546.91 546.38 542.14C537.95 532.1 528.38 522.58 518.29 514.19C484.92 486.44 445.82 465 404.26 452.31C391.5 448.41 378.53 445.75 365.52 442.89C353.11 440.16 340.21 438.34 327.5 437.81C319.68 437.48 311.88 437.81 305.68 443.15C289.11 457.44 308.71 481.52 319.1 493.37C346.15 524.21 383.39 545.37 420.13 562.4C430.13 567.03 451.98 579.14 462.07 572.55C471.79 566.2 468.51 554.96 460.25 549.27C451.24 543.06 439.05 538.78 429.28 533.25C416 525.72 404.18 516.65 392.32 507.13C383.81 500.29 375.02 493.25 368.37 484.5C378.61 483.65 395.55 488.79 405.63 491.79C439.34 501.8 471.09 517.91 498.55 539.98C507.71 547.35 524.07 559.6 529.5 569.52C523.98 570.87 518.28 571.26 512.69 572.33C504.58 573.9 496.43 576.4 488.67 579.21C449.88 593.27 414.33 620.01 388.94 652.4C380.87 662.71 373.4 673.81 368.53 686.03C365.79 692.91 363.9 700.38 366.81 707.62C373.74 724.81 397.66 718.98 411.31 714.75C445.53 704.15 474.79 681.81 502.66 660.12C511.28 653.4 527.52 642.87 526.08 630.5C525.09 621.92 515.99 616.3 508.01 620.53C500.6 624.45 494.19 631.05 487.33 635.87C476.17 643.7 464.23 650.59 451.92 656.45C446.43 659.06 436.18 664.76 430.34 664.5C430.28 660.09 433.16 657.69 436.01 654.5C440.95 648.97 446.12 644.11 451.56 639.08C471.41 620.75 496.5 608.71 522.42 601.8C532.71 599.05 543.76 596.13 554.48 596.5C563.49 608.59 572.67 620.44 583.15 631.33C611.95 661.29 650.73 688.75 688.58 705.87C701.56 711.74 715.18 717.58 729.5 719.03C736.44 719.74 742.99 719.69 748.87 715.4C762.07 705.76 755.67 687.17 748.83 675.69C733.46 649.89 709.14 628.97 685.22 611.3C677.13 605.33 665.45 594.33 654.55 597.1C646.18 599.23 642.52 611.02 647.49 618C650.23 621.85 655.41 624.48 659 627.49C667.35 634.47 675.09 642.06 682.05 650.41C685.47 654.51 689.44 658.44 691.28 663.5C682.1 665.83 668.79 658.26 660.72 653.78C643.02 643.97 627.4 630.49 612.38 617.09C604.47 610.03 596.44 603.27 590.37 594.5C597.41 592.54 605.21 592.76 612.47 591.77C624.17 590.17 635.78 587.51 647.23 584.63C697.17 572.08 743.15 544.82 781.72 511.2C792.79 501.56 803.36 490.53 812.61 479.14C818.68 471.65 824.04 464.02 822.54 453.86C820.04 436.95 794.32 432.37 780.5 433.87C764.56 435.59 749.3 442.61 734.21 447.64C711.84 455.08 689.89 463.38 669.07 474.56C660.13 479.36 639.85 488.17 639.16 499.5C638.6 508.63 646.22 515.79 655.32 513.72C660.02 512.66 664.59 509.53 668.86 507.39C674.03 504.8 679.4 502.42 684.78 500.33C703.85 492.91 732.6 484.56 752.87 483.5C751.82 487.08 747.3 490.24 744.43 492.94C737.51 499.45 730.15 505.36 722.52 510.99C693.93 532.07 660.32 549.68 625.78 558.38C616.09 560.83 598.39 566.49 588.95 564.5ZM200.5 618.01C171.93 618.01 143.35 618.01 114.78 618.01C116.1 628.03 121.43 638.09 124.84 647.61C131.52 666.27 138.05 684.97 144.9 703.56C157.86 738.81 169.9 774.41 182.76 809.7C189.95 829.41 195.47 850.08 204.5 869.01C234.83 869.01 265.17 869.01 295.5 869.01C324.28 785.35 353.06 701.68 381.84 618.02C355.45 618.02 329.06 618.02 302.67 618.02C295.74 636.25 291.45 655.75 285.89 674.45C279.5 695.92 272.43 717.26 266.44 738.85C263.28 750.2 259.34 761.36 256.35 772.75C255.19 777.19 254.43 783.59 251.5 786.92C234.5 730.62 217.5 674.32 200.5 618.01ZM946.24 773C945.73 763.95 944.43 754.24 938.56 746.93C932.45 739.32 922.6 734.82 913.56 731.89C888.95 723.91 848.97 727.2 833.4 750.87C829.83 756.3 828.01 762.11 827.34 768.56C826.99 771.94 827.38 775.17 827.91 778.5C831.96 803.91 853.34 809.93 875.53 814.88C882.46 816.43 899.91 818.24 904.12 824.39C905.27 826.08 905.48 828.51 905.31 830.5C904.57 838.84 892.76 839.25 886.5 839.1C880.4 838.96 872.32 837.34 868.69 831.8C866.84 828.97 866.31 825.36 864.67 822.37C851.56 822.37 838.46 822.37 825.35 822.37C823.29 842.6 837.11 858.82 855.28 865.27C881.86 874.72 926.07 873.86 943.86 848.34C947.89 842.56 949.56 836.45 950.32 829.54C950.76 825.48 950.46 821.54 949.9 817.5C946.36 791.95 923.88 786.8 902.47 782.09C894.13 780.25 877.07 779.31 872 771.48C871.01 769.96 870.88 768.42 871.24 766.61C872.69 759.37 882.82 758.79 888.5 758.87C893.95 758.94 900.11 760.21 903.48 765.01C905.23 767.5 905.6 770.58 907.5 773C920.41 773 933.33 773 946.24 773ZM599.27 795.99C594.17 793.44 588.91 784.37 584.92 779.62C575.18 768.03 565.07 756.7 555.52 744.95C551.74 740.31 548.79 733.08 542.94 730.57C537.94 728.42 530.81 729.94 525.5 730.11C519.41 730.31 510.88 728.3 505.99 732.5C505.99 777.41 505.99 822.31 505.99 867.22C519.33 867.22 532.67 867.22 546.01 867.22C546.01 845.54 546.01 823.86 546.01 802.18C551.42 804.95 555.18 812.6 559.09 817.38C568.37 828.75 578.54 839.38 587.86 850.68C590.46 853.84 599.42 865.8 602.63 866.94C605.98 868.14 610.96 867.25 614.5 867.25C622.67 867.25 630.84 867.25 639 867.25C639 821.83 639 776.41 639 731C625.76 731 612.51 731 599.27 731C599.27 752.66 599.27 774.32 599.27 795.99ZM479.23 730.98C441.1 730.98 402.97 730.98 364.84 730.98C364.84 776.4 364.84 821.82 364.84 867.24C403.55 867.24 442.26 867.24 480.97 867.24C480.97 856.72 480.97 846.2 480.97 835.68C456.23 835.68 431.49 835.68 406.75 835.68C406.75 828.15 406.75 820.61 406.75 813.08C427.47 813.08 448.19 813.08 468.9 813.08C468.9 803.05 468.9 793.02 468.9 782.99C448.16 782.99 427.42 782.99 406.68 782.99C406.68 776.41 406.68 769.83 406.68 763.26C430.86 763.26 455.05 763.26 479.23 763.26C479.23 752.5 479.23 741.74 479.23 730.98ZM712.04 731C698.28 731 684.52 731 670.76 731C670.76 754.17 670.36 777.33 670.36 800.5C670.36 815.57 669.92 831.76 678.62 844.84C694.32 868.44 728.91 873.26 754.56 868.23C768.87 865.42 782.75 860.33 791.36 847.83C805.52 827.27 801.98 791.58 801.73 767.5C801.61 756.44 803.34 741.5 801.12 730.99C787.07 730.99 773.03 730.99 758.98 730.99C758.98 756.5 758.47 782 758.19 807.5C758.02 823.54 755.69 836.84 736.5 836.7C717.16 836.56 713.13 823.27 712.92 806.5C712.71 790.51 712.67 774.49 712.67 758.5C712.67 749.54 713.58 739.81 712.04 731Z" fill="#06987b" fill-rule="evenodd" stroke="#06987b" stroke-width="0.25" stroke-linejoin="round"/>
<path d="M588.95 564.5C598.39 566.49 616.09 560.83 625.78 558.38C660.32 549.68 693.93 532.07 722.52 510.99C730.15 505.36 737.51 499.45 744.43 492.94C747.3 490.24 751.82 487.08 752.87 483.5C732.6 484.56 703.85 492.91 684.78 500.33C679.4 502.42 674.03 504.8 668.86 507.39C664.59 509.53 660.02 512.66 655.32 513.72C646.22 515.79 638.6 508.63 639.16 499.5C639.85 488.17 660.13 479.36 669.07 474.56C689.89 463.38 711.84 455.08 734.21 447.64C749.3 442.61 764.56 435.59 780.5 433.87C794.32 432.37 820.04 436.95 822.54 453.86C824.04 464.02 818.68 471.65 812.61 479.14C803.36 490.53 792.79 501.56 781.72 511.2C743.15 544.82 697.17 572.08 647.23 584.63C635.78 587.51 624.17 590.17 612.47 591.77C605.21 592.76 597.41 592.54 590.37 594.5C596.44 603.27 604.47 610.03 612.38 617.09C627.4 630.49 643.02 643.97 660.72 653.78C668.79 658.26 682.1 665.83 691.28 663.5C689.44 658.44 685.47 654.51 682.05 650.41C675.09 642.06 667.35 634.47 659 627.49C655.41 624.48 650.23 621.85 647.49 618C642.52 611.02 646.18 599.23 654.55 597.1C665.45 594.33 677.13 605.33 685.22 611.3C709.14 628.97 733.46 649.89 748.83 675.69C755.67 687.17 762.07 705.76 748.87 715.4C742.99 719.69 736.44 719.74 729.5 719.03C715.18 717.58 701.56 711.74 688.58 705.87C650.73 688.75 611.95 661.29 583.15 631.33C572.67 620.44 563.49 608.59 554.48 596.5C543.76 596.13 532.71 599.05 522.42 601.8C496.5 608.71 471.41 620.75 451.56 639.08C446.12 644.11 440.95 648.97 436.01 654.5C433.16 657.69 430.28 660.09 430.34 664.5C436.18 664.76 446.43 659.06 451.92 656.45C464.23 650.59 476.17 643.7 487.33 635.87C494.19 631.05 500.6 624.45 508.01 620.53C515.99 616.3 525.09 621.92 526.08 630.5C527.52 642.87 511.28 653.4 502.66 660.12C474.79 681.81 445.53 704.15 411.31 714.75C397.66 718.98 373.74 724.81 366.81 707.62C363.9 700.38 365.79 692.91 368.53 686.03C373.4 673.81 380.87 662.71 388.94 652.4C414.33 620.01 449.88 593.27 488.67 579.21C496.43 576.4 504.58 573.9 512.69 572.33C518.28 571.26 523.98 570.87 529.5 569.52C524.07 559.6 507.71 547.35 498.55 539.98C471.09 517.91 439.34 501.8 405.63 491.79C395.55 488.79 378.61 483.65 368.37 484.5C375.02 493.25 383.81 500.29 392.32 507.13C404.18 516.65 416 525.72 429.28 533.25C439.05 538.78 451.24 543.06 460.25 549.27C468.51 554.96 471.79 566.2 462.07 572.55C451.98 579.14 430.13 567.03 420.13 562.4C383.39 545.37 346.15 524.21 319.1 493.37C308.71 481.52 289.11 457.44 305.68 443.15C311.88 437.81 319.68 437.48 327.5 437.81C340.21 438.34 353.11 440.16 365.52 442.89C378.53 445.75 391.5 448.41 404.26 452.31C445.82 465 484.92 486.44 518.29 514.19C528.38 522.58 537.95 532.1 546.38 542.14C550.39 546.91 554.34 555.03 560.5 556.76C564.11 547.63 569.45 539.14 573.88 530.36C579.38 519.44 583.79 507.85 587.75 496.29C607.38 438.96 607.24 374.87 589.38 317.2C584.8 302.41 578.55 288.38 572.25 274.27C569.31 267.68 566.15 257.99 560.5 253.4C551.97 264.35 544.87 284.19 539.82 297.34C522.28 342.95 515.66 392.84 519.66 441.53C520.15 447.51 520.42 453.51 521.24 459.46C521.87 464.14 523.35 469.53 522.6 474.25C521.17 483.34 511.61 488.51 503.24 485.31C496.39 482.69 493.92 474.94 491.81 468.63C487.32 455.2 483.92 441.65 481.65 427.68C471.33 364.25 486.84 301.95 512.73 244.25C519.47 229.23 530.85 208.61 542.33 196.85C548.75 190.28 557.17 185.77 566.46 189.07C577.5 192.98 583.47 203.86 589.01 213.47C599.84 232.22 609.45 251.09 617.16 271.36C639.96 331.36 645.66 397.86 631.11 460.53C628.47 471.93 625.94 483.44 622.09 494.52C617.15 508.7 611.88 523 604.8 536.29C601.81 541.89 598.74 547.49 595.42 552.91C593.11 556.67 590.01 560.25 588.95 564.5ZM200.5 618.01C217.5 674.32 234.5 730.62 251.5 786.92C254.43 783.59 255.19 777.19 256.35 772.75C259.34 761.36 263.28 750.2 266.44 738.85C272.43 717.26 279.5 695.92 285.89 674.45C291.45 655.75 295.74 636.25 302.67 618.02C329.06 618.02 355.45 618.02 381.84 618.02C353.06 701.68 324.28 785.35 295.5 869.01C265.17 869.01 234.83 869.01 204.5 869.01C195.47 850.08 189.95 829.41 182.76 809.7C169.9 774.41 157.86 738.81 144.9 703.56C138.05 684.97 131.52 666.27 124.84 647.61C121.43 638.09 116.1 628.03 114.78 618.01C143.35 618.01 171.93 618.01 200.5 618.01ZM946.24 773C933.33 773 920.41 773 907.5 773C905.6 770.58 905.23 767.5 903.48 765.01C900.11 760.21 893.95 758.94 888.5 758.87C882.82 758.79 872.69 759.37 871.24 766.61C870.88 768.42 871.01 769.96 872 771.48C877.07 779.31 894.13 780.25 902.47 782.09C923.88 786.8 946.36 791.95 949.9 817.5C950.46 821.54 950.76 825.48 950.32 829.54C949.56 836.45 947.89 842.56 943.86 848.34C926.07 873.86 881.86 874.72 855.28 865.27C837.11 858.82 823.29 842.6 825.35 822.37C838.46 822.37 851.56 822.37 864.67 822.37C866.31 825.36 866.84 828.97 868.69 831.8C872.32 837.34 880.4 838.96 886.5 839.1C892.76 839.25 904.57 838.84 905.31 830.5C905.48 828.51 905.27 826.08 904.12 824.39C899.91 818.24 882.46 816.43 875.53 814.88C853.34 809.93 831.96 803.91 827.91 778.5C827.38 775.17 826.99 771.94 827.34 768.56C828.01 762.11 829.83 756.3 833.4 750.87C848.97 727.2 888.95 723.91 913.56 731.89C922.6 734.82 932.45 739.32 938.56 746.93C944.43 754.24 945.73 763.95 946.24 773ZM599.27 795.99C599.27 774.32 599.27 752.66 599.27 731C612.51 731 625.76 731 639 731C639 776.41 639 821.83 639 867.25C630.84 867.25 622.67 867.25 614.5 867.25C610.96 867.25 605.98 868.14 602.63 866.94C599.42 865.8 590.46 853.84 587.86 850.68C578.54 839.38 568.37 828.75 559.09 817.38C555.18 812.6 551.42 804.95 546.01 802.18C546.01 823.86 546.01 845.54 546.01 867.22C532.67 867.22 519.33 867.22 505.99 867.22C505.99 822.31 505.99 777.41 505.99 732.5C510.88 728.3 519.41 730.31 525.5 730.11C530.81 729.94 537.94 728.42 542.94 730.57C548.79 733.08 551.74 740.31 555.52 744.95C565.07 756.7 575.18 768.03 584.92 779.62C588.91 784.37 594.17 793.44 599.27 795.99ZM479.23 730.98C479.23 741.74 479.23 752.5 479.23 763.26C455.05 763.26 430.86 763.26 406.68 763.26C406.68 769.83 406.68 776.41 406.68 782.99C427.42 782.99 448.16 782.99 468.9 782.99C468.9 793.02 468.9 803.05 468.9 813.08C448.19 813.08 427.47 813.08 406.75 813.08C406.75 820.61 406.75 828.15 406.75 835.68C431.49 835.68 456.23 835.68 480.97 835.68C480.97 846.2 480.97 856.72 480.97 867.24C442.26 867.24 403.55 867.24 364.84 867.24C364.84 821.82 364.84 776.4 364.84 730.98C402.97 730.98 441.1 730.98 479.23 730.98ZM712.04 731C713.58 739.81 712.67 749.54 712.67 758.5C712.67 774.49 712.71 790.51 712.92 806.5C713.13 823.27 717.16 836.56 736.5 836.7C755.69 836.84 758.02 823.54 758.19 807.5C758.47 782 758.98 756.5 758.98 730.99C773.03 730.99 787.07 730.99 801.12 730.99C803.34 741.5 801.61 756.44 801.73 767.5C801.98 791.58 805.52 827.27 791.36 847.83C782.75 860.33 768.87 865.42 754.56 868.23C728.91 873.26 694.32 868.44 678.62 844.84C669.92 831.76 670.36 815.57 670.36 800.5C670.36 777.33 670.76 754.17 670.76 731C684.52 731 698.28 731 712.04 731Z" fill="#ffffff" fill-rule="evenodd" stroke="#ffffff" stroke-width="0.25" stroke-linejoin="round"/>
</svg>